<?xml version="1.0" encoding="UTF-8" standalone="no"?>
<svg
   xmlns:dc="http://purl.org/dc/elements/1.1/"
   xmlns:cc="http://creativecommons.org/ns#"
   xmlns:rdf="http://www.w3.org/1999/02/22-rdf-syntax-ns#"
   xmlns:svg="http://www.w3.org/2000/svg"
   xmlns="http://www.w3.org/2000/svg"
   xmlns:sodipodi="http://sodipodi.sourceforge.net/DTD/sodipodi-0.dtd"
   xmlns:inkscape="http://www.inkscape.org/namespaces/inkscape"
   fill="none"
   viewBox="0 0 98 33"
   width="98"
   height="33"
   class="css-13o7eu2"
   version="1.1"
   id="svg852"
   sodipodi:docname="fnd_1.svg"
   inkscape:version="1.0.2-2 (e86c870879, 2021-01-15)">
  <metadata
     id="metadata858">
    <rdf:RDF>
      <cc:Work
         rdf:about="">
        <dc:format>image/svg+xml</dc:format>
        <dc:type
           rdf:resource="http://purl.org/dc/dcmitype/StillImage" />
        <dc:title></dc:title>
      </cc:Work>
    </rdf:RDF>
  </metadata>
  <defs
     id="defs856">
    <filter
       inkscape:collect="always"
       style="color-interpolation-filters:sRGB"
       id="filter1477"
       x="-0.0008024164"
       width="1.0016048"
       y="-0.002378512"
       height="1.004757">
      <feGaussianBlur
         inkscape:collect="always"
         stdDeviation="0.032556617"
         id="feGaussianBlur1479" />
    </filter>
  </defs>
  <sodipodi:namedview
     pagecolor="#ffffff"
     bordercolor="#666666"
     borderopacity="1"
     objecttolerance="10"
     gridtolerance="10"
     guidetolerance="10"
     inkscape:pageopacity="0"
     inkscape:pageshadow="2"
     inkscape:window-width="2400"
     inkscape:window-height="1284"
     id="namedview854"
     showgrid="false"
     inkscape:zoom="8"
     inkscape:cx="57.032437"
     inkscape:cy="30.824314"
     inkscape:window-x="-9"
     inkscape:window-y="29"
     inkscape:window-maximized="1"
     inkscape:current-layer="layer1" />
  <g
     inkscape:groupmode="layer"
     id="layer1"
     inkscape:label="Layer 1"
     style="display:inline">
    <path
       style="display:inline;fill:#000000;stroke-width:0.0715167;filter:url(#filter1477)"
       d="M 47.668873,32.835803 C 32.461543,32.070943 26.390591,12.609709 38.505223,3.4607291 52.190398,-6.8742947 70.669693,8.3379047 63.084637,23.694553 c -2.740965,5.549328 -9.585133,9.76957 -14.879388,9.17488 -0.05904,-0.007 -0.300371,-0.02178 -0.536376,-0.03359 z m 20.289601,-1.033444 c -0.392416,-0.01041 -1.023817,-0.551647 -1.00835,-1.02766 0.02043,-0.628759 0.05084,-28.3239274 0.06998,-28.7139058 0.02134,-0.3495727 0.396875,-0.8090219 0.74491,-0.8115208 0.616399,0.00118 28.553066,0.037098 29.111518,0.062813 0.428703,0.019741 0.748594,0.4956515 0.745515,0.9548379 2.12e-4,0.4281341 -0.01724,28.1020567 -0.01538,28.4989787 0.0025,0.531663 -0.201039,1.022499 -1.020463,1.038245 -0.383947,0.0074 -28.005455,1.63e-4 -28.627738,-0.002 z M 0.73960775,31.695535 C 0.39540685,31.67415 0.12156314,31.225697 0.30528327,30.928052 0.52446468,30.572956 17.175516,1.7131034 17.357239,1.3996361 c 0.180758,-0.3118033 0.649967,-0.2888648 0.856643,0.036006 0.199283,0.3132481 16.862009,29.1732019 17.020907,29.4758419 0.162594,0.30968 -0.09568,0.798777 -0.50969,0.797251 -0.415668,-0.0015 -33.5706104,-0.0014 -33.98549125,-0.01323 z"
       id="path1475"
       sodipodi:nodetypes="sssscscsccscsscccssssscc" />
  </g>
</svg>
