<?xml version="1.0" encoding="UTF-8" standalone="no"?>
<svg
   xmlns:dc="http://purl.org/dc/elements/1.1/"
   xmlns:cc="http://creativecommons.org/ns#"
   xmlns:rdf="http://www.w3.org/1999/02/22-rdf-syntax-ns#"
   xmlns:svg="http://www.w3.org/2000/svg"
   xmlns="http://www.w3.org/2000/svg"
   xmlns:sodipodi="http://sodipodi.sourceforge.net/DTD/sodipodi-0.dtd"
   xmlns:inkscape="http://www.inkscape.org/namespaces/inkscape"
   fill="none"
   viewBox="0 0 98 33"
   width="98"
   height="33"
   class="css-13o7eu2"
   version="1.1"
   id="svg852"
   sodipodi:docname="fnd_.svg"
   inkscape:version="1.0.2-2 (e86c870879, 2021-01-15)">
  <metadata
     id="metadata858">
    <rdf:RDF>
      <cc:Work
         rdf:about="">
        <dc:format>image/svg+xml</dc:format>
        <dc:type
           rdf:resource="http://purl.org/dc/dcmitype/StillImage" />
        <dc:title></dc:title>
      </cc:Work>
    </rdf:RDF>
  </metadata>
  <defs
     id="defs856" />
  <sodipodi:namedview
     pagecolor="#ffffff"
     bordercolor="#666666"
     borderopacity="1"
     objecttolerance="10"
     gridtolerance="10"
     guidetolerance="10"
     inkscape:pageopacity="0"
     inkscape:pageshadow="2"
     inkscape:window-width="2400"
     inkscape:window-height="1284"
     id="namedview854"
     showgrid="false"
     inkscape:zoom="8.766681"
     inkscape:cx="50.703924"
     inkscape:cy="34.266472"
     inkscape:window-x="-9"
     inkscape:window-y="29"
     inkscape:window-maximized="1"
     inkscape:current-layer="svg852" />
  <path
     clip-rule="evenodd"
     d="M64.894 16.456c0 9.088-7.368 16.456-16.457 16.456s-16.455-7.368-16.455-16.456S39.349 0 48.438 0s16.455 7.368 16.455 16.456zM16.902 1.567a.784.784 0 011.358 0L35.056 30.66a.784.784 0 01-.679 1.176H.785a.784.784 0 01-.679-1.176zM68.614.98c-.865 0-1.567.702-1.567 1.568v27.818c0 .866.702 1.567 1.567 1.567h27.819c.865 0 1.567-.701 1.567-1.567V2.547c0-.866-.702-1.568-1.567-1.568z"
     fill="currentColor"
     fill-rule="evenodd"
     id="path850" />
</svg>
